<svg width="53" height="51" viewBox="0 0 53 51" fill="none" xmlns="http://www.w3.org/2000/svg">
<path d="M8.61609 38.73C8.61609 40.5033 8.96609 41.7633 9.66609 42.51C10.4128 43.21 11.3928 43.56 12.6061 43.56C13.8194 43.56 14.7761 43.21 15.4761 42.51C16.2228 41.7633 16.5961 40.5033 16.5961 38.73V12.27C16.5961 10.4967 16.2228 9.26 15.4761 8.56C14.7761 7.81333 13.8194 7.44 12.6061 7.44C11.3928 7.44 10.4128 7.81333 9.66609 8.56C8.96609 9.26 8.61609 10.4967 8.61609 12.27V38.73ZM0.916094 12.76C0.916094 8.79333 1.91943 5.76 3.92609 3.66C5.93276 1.51333 8.82609 0.44 12.6061 0.44C16.3861 0.44 19.2794 1.51333 21.2861 3.66C23.2928 5.76 24.2961 8.79333 24.2961 12.76V38.24C24.2961 42.2067 23.2928 45.2633 21.2861 47.41C19.2794 49.51 16.3861 50.56 12.6061 50.56C8.82609 50.56 5.93276 49.51 3.92609 47.41C1.91943 45.2633 0.916094 42.2067 0.916094 38.24V12.76ZM44.56 13.04C44.56 10.8467 44.1867 9.37666 43.44 8.63C42.74 7.83666 41.7833 7.44 40.57 7.44C39.3567 7.44 38.3767 7.81333 37.63 8.56C36.93 9.26 36.58 10.4967 36.58 12.27V17.52H29.3V12.76C29.3 8.79333 30.2567 5.76 32.17 3.66C34.13 1.51333 37 0.44 40.78 0.44C44.56 0.44 47.4067 1.51333 49.32 3.66C51.28 5.76 52.26 8.79333 52.26 12.76C52.26 15.3267 51.8867 17.66 51.14 19.76C50.3933 21.8133 49.4367 23.7033 48.27 25.43C47.15 27.11 45.9133 28.6733 44.56 30.12C43.2533 31.5667 42.0167 32.9433 40.85 34.25C39.73 35.5567 38.7967 36.84 38.05 38.1C37.3033 39.3133 36.93 40.5967 36.93 41.95C36.93 42.4167 36.9533 42.7667 37 43H51.56V50H29.3V43.98C29.3 41.6 29.6733 39.5 30.42 37.68C31.1667 35.86 32.1 34.2033 33.22 32.71C34.3867 31.17 35.6233 29.7467 36.93 28.44C38.2367 27.0867 39.45 25.6633 40.57 24.17C41.7367 22.6767 42.6933 21.0433 43.44 19.27C44.1867 17.4967 44.56 15.42 44.56 13.04Z" fill="url(#paint0_linear_29_81)"/>
<path d="M8.61609 38.73C8.61609 40.5033 8.96609 41.7633 9.66609 42.51C10.4128 43.21 11.3928 43.56 12.6061 43.56C13.8194 43.56 14.7761 43.21 15.4761 42.51C16.2228 41.7633 16.5961 40.5033 16.5961 38.73V12.27C16.5961 10.4967 16.2228 9.26 15.4761 8.56C14.7761 7.81333 13.8194 7.44 12.6061 7.44C11.3928 7.44 10.4128 7.81333 9.66609 8.56C8.96609 9.26 8.61609 10.4967 8.61609 12.27V38.73ZM0.916094 12.76C0.916094 8.79333 1.91943 5.76 3.92609 3.66C5.93276 1.51333 8.82609 0.44 12.6061 0.44C16.3861 0.44 19.2794 1.51333 21.2861 3.66C23.2928 5.76 24.2961 8.79333 24.2961 12.76V38.24C24.2961 42.2067 23.2928 45.2633 21.2861 47.41C19.2794 49.51 16.3861 50.56 12.6061 50.56C8.82609 50.56 5.93276 49.51 3.92609 47.41C1.91943 45.2633 0.916094 42.2067 0.916094 38.24V12.76ZM44.56 13.04C44.56 10.8467 44.1867 9.37666 43.44 8.63C42.74 7.83666 41.7833 7.44 40.57 7.44C39.3567 7.44 38.3767 7.81333 37.63 8.56C36.93 9.26 36.58 10.4967 36.58 12.27V17.52H29.3V12.76C29.3 8.79333 30.2567 5.76 32.17 3.66C34.13 1.51333 37 0.44 40.78 0.44C44.56 0.44 47.4067 1.51333 49.32 3.66C51.28 5.76 52.26 8.79333 52.26 12.76C52.26 15.3267 51.8867 17.66 51.14 19.76C50.3933 21.8133 49.4367 23.7033 48.27 25.43C47.15 27.11 45.9133 28.6733 44.56 30.12C43.2533 31.5667 42.0167 32.9433 40.85 34.25C39.73 35.5567 38.7967 36.84 38.05 38.1C37.3033 39.3133 36.93 40.5967 36.93 41.95C36.93 42.4167 36.9533 42.7667 37 43H51.56V50H29.3V43.98C29.3 41.6 29.6733 39.5 30.42 37.68C31.1667 35.86 32.1 34.2033 33.22 32.71C34.3867 31.17 35.6233 29.7467 36.93 28.44C38.2367 27.0867 39.45 25.6633 40.57 24.17C41.7367 22.6767 42.6933 21.0433 43.44 19.27C44.1867 17.4967 44.56 15.42 44.56 13.04Z" fill="url(#paint1_radial_29_81)" fill-opacity="0.3"/>
<defs>
<linearGradient id="paint0_linear_29_81" x1="57.3337" y1="10.5075" x2="-4.47963" y2="10.9138" gradientUnits="userSpaceOnUse">
<stop offset="0.0568692" stop-color="#E7BF73"/>
<stop offset="0.459767" stop-color="#FFF2AF"/>
<stop offset="1" stop-color="#D2B988"/>
</linearGradient>
<radialGradient id="paint1_radial_29_81" cx="0" cy="0" r="1" gradientUnits="userSpaceOnUse" gradientTransform="translate(28.4629 11.29) rotate(91.694) scale(63.2376 33.9879)">
<stop stop-color="white"/>
<stop offset="1" stop-color="white" stop-opacity="0"/>
</radialGradient>
</defs>
</svg>
