<svg width="52" height="51" viewBox="0 0 52 51" fill="none" xmlns="http://www.w3.org/2000/svg">
<path d="M8.61609 38.73C8.61609 40.5033 8.96609 41.7633 9.66609 42.51C10.4128 43.21 11.3928 43.56 12.6061 43.56C13.8194 43.56 14.7761 43.21 15.4761 42.51C16.2228 41.7633 16.5961 40.5033 16.5961 38.73V12.27C16.5961 10.4967 16.2228 9.26 15.4761 8.56C14.7761 7.81333 13.8194 7.44 12.6061 7.44C11.3928 7.44 10.4128 7.81333 9.66609 8.56C8.96609 9.26 8.61609 10.4967 8.61609 12.27V38.73ZM0.916094 12.76C0.916094 8.79333 1.91943 5.76 3.92609 3.66C5.93276 1.51333 8.82609 0.44 12.6061 0.44C16.3861 0.44 19.2794 1.51333 21.2861 3.66C23.2928 5.76 24.2961 8.79333 24.2961 12.76V38.24C24.2961 42.2067 23.2928 45.2633 21.2861 47.41C19.2794 49.51 16.3861 50.56 12.6061 50.56C8.82609 50.56 5.93276 49.51 3.92609 47.41C1.91943 45.2633 0.916094 42.2067 0.916094 38.24V12.76ZM44.14 13.04C44.14 10.8467 43.7667 9.37666 43.02 8.63C42.32 7.83666 41.3633 7.44 40.15 7.44C38.9367 7.44 37.9567 7.81333 37.21 8.56C36.51 9.26 36.16 10.4967 36.16 12.27V15.42H28.88V12.76C28.88 8.79333 29.8367 5.76 31.75 3.66C33.71 1.51333 36.58 0.44 40.36 0.44C44.14 0.44 46.9867 1.51333 48.9 3.66C50.86 5.76 51.84 8.79333 51.84 12.76V14.02C51.84 19.2467 50.0433 22.6067 46.45 24.1C48.41 24.94 49.7867 26.2467 50.58 28.02C51.42 29.7467 51.84 31.87 51.84 34.39V38.24C51.84 42.2067 50.86 45.2633 48.9 47.41C46.9867 49.51 44.14 50.56 40.36 50.56C36.58 50.56 33.71 49.51 31.75 47.41C29.8367 45.2633 28.88 42.2067 28.88 38.24V34.18H36.16V38.73C36.16 40.5033 36.51 41.7633 37.21 42.51C37.9567 43.21 38.9367 43.56 40.15 43.56C41.3633 43.56 42.32 43.1867 43.02 42.44C43.7667 41.6933 44.14 40.2233 44.14 38.03V34.18C44.14 31.8933 43.7433 30.2833 42.95 29.35C42.1567 28.4167 40.8733 27.95 39.1 27.95H36.51V20.95H39.52C40.9667 20.95 42.0867 20.5767 42.88 19.83C43.72 19.0833 44.14 17.73 44.14 15.77V13.04Z" fill="url(#paint0_linear_29_84)"/>
<path d="M8.61609 38.73C8.61609 40.5033 8.96609 41.7633 9.66609 42.51C10.4128 43.21 11.3928 43.56 12.6061 43.56C13.8194 43.56 14.7761 43.21 15.4761 42.51C16.2228 41.7633 16.5961 40.5033 16.5961 38.73V12.27C16.5961 10.4967 16.2228 9.26 15.4761 8.56C14.7761 7.81333 13.8194 7.44 12.6061 7.44C11.3928 7.44 10.4128 7.81333 9.66609 8.56C8.96609 9.26 8.61609 10.4967 8.61609 12.27V38.73ZM0.916094 12.76C0.916094 8.79333 1.91943 5.76 3.92609 3.66C5.93276 1.51333 8.82609 0.44 12.6061 0.44C16.3861 0.44 19.2794 1.51333 21.2861 3.66C23.2928 5.76 24.2961 8.79333 24.2961 12.76V38.24C24.2961 42.2067 23.2928 45.2633 21.2861 47.41C19.2794 49.51 16.3861 50.56 12.6061 50.56C8.82609 50.56 5.93276 49.51 3.92609 47.41C1.91943 45.2633 0.916094 42.2067 0.916094 38.24V12.76ZM44.14 13.04C44.14 10.8467 43.7667 9.37666 43.02 8.63C42.32 7.83666 41.3633 7.44 40.15 7.44C38.9367 7.44 37.9567 7.81333 37.21 8.56C36.51 9.26 36.16 10.4967 36.16 12.27V15.42H28.88V12.76C28.88 8.79333 29.8367 5.76 31.75 3.66C33.71 1.51333 36.58 0.44 40.36 0.44C44.14 0.44 46.9867 1.51333 48.9 3.66C50.86 5.76 51.84 8.79333 51.84 12.76V14.02C51.84 19.2467 50.0433 22.6067 46.45 24.1C48.41 24.94 49.7867 26.2467 50.58 28.02C51.42 29.7467 51.84 31.87 51.84 34.39V38.24C51.84 42.2067 50.86 45.2633 48.9 47.41C46.9867 49.51 44.14 50.56 40.36 50.56C36.58 50.56 33.71 49.51 31.75 47.41C29.8367 45.2633 28.88 42.2067 28.88 38.24V34.18H36.16V38.73C36.16 40.5033 36.51 41.7633 37.21 42.51C37.9567 43.21 38.9367 43.56 40.15 43.56C41.3633 43.56 42.32 43.1867 43.02 42.44C43.7667 41.6933 44.14 40.2233 44.14 38.03V34.18C44.14 31.8933 43.7433 30.2833 42.95 29.35C42.1567 28.4167 40.8733 27.95 39.1 27.95H36.51V20.95H39.52C40.9667 20.95 42.0867 20.5767 42.88 19.83C43.72 19.0833 44.14 17.73 44.14 15.77V13.04Z" fill="url(#paint1_radial_29_84)" fill-opacity="0.3"/>
<defs>
<linearGradient id="paint0_linear_29_84" x1="57.3337" y1="10.5075" x2="-4.47963" y2="10.9138" gradientUnits="userSpaceOnUse">
<stop offset="0.0568692" stop-color="#E7BF73"/>
<stop offset="0.459767" stop-color="#FFF2AF"/>
<stop offset="1" stop-color="#D2B988"/>
</linearGradient>
<radialGradient id="paint1_radial_29_84" cx="0" cy="0" r="1" gradientUnits="userSpaceOnUse" gradientTransform="translate(28.4629 11.29) rotate(91.694) scale(63.2376 33.9879)">
<stop stop-color="white"/>
<stop offset="1" stop-color="white" stop-opacity="0"/>
</radialGradient>
</defs>
</svg>
