<svg width="54" height="51" viewBox="0 0 54 51" fill="none" xmlns="http://www.w3.org/2000/svg">
<path d="M8.61609 38.73C8.61609 40.5033 8.96609 41.7633 9.66609 42.51C10.4128 43.21 11.3928 43.56 12.6061 43.56C13.8194 43.56 14.7761 43.21 15.4761 42.51C16.2228 41.7633 16.5961 40.5033 16.5961 38.73V12.27C16.5961 10.4967 16.2228 9.26 15.4761 8.56C14.7761 7.81333 13.8194 7.44 12.6061 7.44C11.3928 7.44 10.4128 7.81333 9.66609 8.56C8.96609 9.26 8.61609 10.4967 8.61609 12.27V38.73ZM0.916094 12.76C0.916094 8.79333 1.91943 5.76 3.92609 3.66C5.93276 1.51333 8.82609 0.44 12.6061 0.44C16.3861 0.44 19.2794 1.51333 21.2861 3.66C23.2928 5.76 24.2961 8.79333 24.2961 12.76V38.24C24.2961 42.2067 23.2928 45.2633 21.2861 47.41C19.2794 49.51 16.3861 50.56 12.6061 50.56C8.82609 50.56 5.93276 49.51 3.92609 47.41C1.91943 45.2633 0.916094 42.2067 0.916094 38.24V12.76ZM27.48 34.11L41.48 0.999997H49.88V34.11H53.52V41.11H49.88V50H42.32V41.11H27.48V34.11ZM42.32 34.11V15.7L34.55 34.11H42.32Z" fill="url(#paint0_linear_29_87)"/>
<path d="M8.61609 38.73C8.61609 40.5033 8.96609 41.7633 9.66609 42.51C10.4128 43.21 11.3928 43.56 12.6061 43.56C13.8194 43.56 14.7761 43.21 15.4761 42.51C16.2228 41.7633 16.5961 40.5033 16.5961 38.73V12.27C16.5961 10.4967 16.2228 9.26 15.4761 8.56C14.7761 7.81333 13.8194 7.44 12.6061 7.44C11.3928 7.44 10.4128 7.81333 9.66609 8.56C8.96609 9.26 8.61609 10.4967 8.61609 12.27V38.73ZM0.916094 12.76C0.916094 8.79333 1.91943 5.76 3.92609 3.66C5.93276 1.51333 8.82609 0.44 12.6061 0.44C16.3861 0.44 19.2794 1.51333 21.2861 3.66C23.2928 5.76 24.2961 8.79333 24.2961 12.76V38.24C24.2961 42.2067 23.2928 45.2633 21.2861 47.41C19.2794 49.51 16.3861 50.56 12.6061 50.56C8.82609 50.56 5.93276 49.51 3.92609 47.41C1.91943 45.2633 0.916094 42.2067 0.916094 38.24V12.76ZM27.48 34.11L41.48 0.999997H49.88V34.11H53.52V41.11H49.88V50H42.32V41.11H27.48V34.11ZM42.32 34.11V15.7L34.55 34.11H42.32Z" fill="url(#paint1_radial_29_87)" fill-opacity="0.3"/>
<defs>
<linearGradient id="paint0_linear_29_87" x1="57.3337" y1="10.5075" x2="-4.47963" y2="10.9138" gradientUnits="userSpaceOnUse">
<stop offset="0.0568692" stop-color="#E7BF73"/>
<stop offset="0.459767" stop-color="#FFF2AF"/>
<stop offset="1" stop-color="#D2B988"/>
</linearGradient>
<radialGradient id="paint1_radial_29_87" cx="0" cy="0" r="1" gradientUnits="userSpaceOnUse" gradientTransform="translate(28.4629 11.29) rotate(91.694) scale(63.2376 33.9879)">
<stop stop-color="white"/>
<stop offset="1" stop-color="white" stop-opacity="0"/>
</radialGradient>
</defs>
</svg>
