<svg width="53" height="51" viewBox="0 0 53 51" fill="none" xmlns="http://www.w3.org/2000/svg">
<path d="M8.61609 38.73C8.61609 40.5033 8.96609 41.7633 9.66609 42.51C10.4128 43.21 11.3928 43.56 12.6061 43.56C13.8194 43.56 14.7761 43.21 15.4761 42.51C16.2228 41.7633 16.5961 40.5033 16.5961 38.73V12.27C16.5961 10.4967 16.2228 9.26 15.4761 8.56C14.7761 7.81333 13.8194 7.44 12.6061 7.44C11.3928 7.44 10.4128 7.81333 9.66609 8.56C8.96609 9.26 8.61609 10.4967 8.61609 12.27V38.73ZM0.916094 12.76C0.916094 8.79333 1.91943 5.76 3.92609 3.66C5.93276 1.51333 8.82609 0.44 12.6061 0.44C16.3861 0.44 19.2794 1.51333 21.2861 3.66C23.2928 5.76 24.2961 8.79333 24.2961 12.76V38.24C24.2961 42.2067 23.2928 45.2633 21.2861 47.41C19.2794 49.51 16.3861 50.56 12.6061 50.56C8.82609 50.56 5.93276 49.51 3.92609 47.41C1.91943 45.2633 0.916094 42.2067 0.916094 38.24V12.76ZM28.81 13.18C28.81 9.02667 29.7667 5.87667 31.68 3.73C33.5933 1.53667 36.5567 0.44 40.57 0.44C44.35 0.44 47.1967 1.51333 49.11 3.66C51.07 5.76 52.05 8.79333 52.05 12.76V14.02H44.77V12.27C44.77 10.4967 44.3967 9.26 43.65 8.56C42.95 7.81333 41.9933 7.44 40.78 7.44C39.4267 7.44 38.3767 7.86 37.63 8.7C36.8833 9.54 36.51 11.1267 36.51 13.46V22.42C37.8633 19.5267 40.2433 18.08 43.65 18.08C46.4967 18.08 48.62 19.0367 50.02 20.95C51.4667 22.8633 52.19 25.64 52.19 29.28V38.24C52.19 42.2067 51.1867 45.2633 49.18 47.41C47.1733 49.51 44.28 50.56 40.5 50.56C36.72 50.56 33.8267 49.51 31.82 47.41C29.8133 45.2633 28.81 42.2067 28.81 38.24V13.18ZM40.5 25.08C39.2867 25.08 38.3067 25.4533 37.56 26.2C36.86 26.9 36.51 28.1367 36.51 29.91V38.73C36.51 40.5033 36.86 41.74 37.56 42.44C38.3067 43.14 39.2867 43.49 40.5 43.49C41.7133 43.49 42.67 43.14 43.37 42.44C44.1167 41.74 44.49 40.5033 44.49 38.73V29.91C44.49 28.1367 44.1167 26.9 43.37 26.2C42.67 25.4533 41.7133 25.08 40.5 25.08Z" fill="url(#paint0_linear_29_93)"/>
<path d="M8.61609 38.73C8.61609 40.5033 8.96609 41.7633 9.66609 42.51C10.4128 43.21 11.3928 43.56 12.6061 43.56C13.8194 43.56 14.7761 43.21 15.4761 42.51C16.2228 41.7633 16.5961 40.5033 16.5961 38.73V12.27C16.5961 10.4967 16.2228 9.26 15.4761 8.56C14.7761 7.81333 13.8194 7.44 12.6061 7.44C11.3928 7.44 10.4128 7.81333 9.66609 8.56C8.96609 9.26 8.61609 10.4967 8.61609 12.27V38.73ZM0.916094 12.76C0.916094 8.79333 1.91943 5.76 3.92609 3.66C5.93276 1.51333 8.82609 0.44 12.6061 0.44C16.3861 0.44 19.2794 1.51333 21.2861 3.66C23.2928 5.76 24.2961 8.79333 24.2961 12.76V38.24C24.2961 42.2067 23.2928 45.2633 21.2861 47.41C19.2794 49.51 16.3861 50.56 12.6061 50.56C8.82609 50.56 5.93276 49.51 3.92609 47.41C1.91943 45.2633 0.916094 42.2067 0.916094 38.24V12.76ZM28.81 13.18C28.81 9.02667 29.7667 5.87667 31.68 3.73C33.5933 1.53667 36.5567 0.44 40.57 0.44C44.35 0.44 47.1967 1.51333 49.11 3.66C51.07 5.76 52.05 8.79333 52.05 12.76V14.02H44.77V12.27C44.77 10.4967 44.3967 9.26 43.65 8.56C42.95 7.81333 41.9933 7.44 40.78 7.44C39.4267 7.44 38.3767 7.86 37.63 8.7C36.8833 9.54 36.51 11.1267 36.51 13.46V22.42C37.8633 19.5267 40.2433 18.08 43.65 18.08C46.4967 18.08 48.62 19.0367 50.02 20.95C51.4667 22.8633 52.19 25.64 52.19 29.28V38.24C52.19 42.2067 51.1867 45.2633 49.18 47.41C47.1733 49.51 44.28 50.56 40.5 50.56C36.72 50.56 33.8267 49.51 31.82 47.41C29.8133 45.2633 28.81 42.2067 28.81 38.24V13.18ZM40.5 25.08C39.2867 25.08 38.3067 25.4533 37.56 26.2C36.86 26.9 36.51 28.1367 36.51 29.91V38.73C36.51 40.5033 36.86 41.74 37.56 42.44C38.3067 43.14 39.2867 43.49 40.5 43.49C41.7133 43.49 42.67 43.14 43.37 42.44C44.1167 41.74 44.49 40.5033 44.49 38.73V29.91C44.49 28.1367 44.1167 26.9 43.37 26.2C42.67 25.4533 41.7133 25.08 40.5 25.08Z" fill="url(#paint1_radial_29_93)" fill-opacity="0.3"/>
<defs>
<linearGradient id="paint0_linear_29_93" x1="57.3337" y1="10.5075" x2="-4.47963" y2="10.9138" gradientUnits="userSpaceOnUse">
<stop offset="0.0568692" stop-color="#E7BF73"/>
<stop offset="0.459767" stop-color="#FFF2AF"/>
<stop offset="1" stop-color="#D2B988"/>
</linearGradient>
<radialGradient id="paint1_radial_29_93" cx="0" cy="0" r="1" gradientUnits="userSpaceOnUse" gradientTransform="translate(28.4629 11.29) rotate(91.694) scale(63.2376 33.9879)">
<stop stop-color="white"/>
<stop offset="1" stop-color="white" stop-opacity="0"/>
</radialGradient>
</defs>
</svg>
