<svg width="53" height="51" viewBox="0 0 53 51" fill="none" xmlns="http://www.w3.org/2000/svg">
<path d="M8.61609 38.73C8.61609 40.5033 8.96609 41.7633 9.66609 42.51C10.4128 43.21 11.3928 43.56 12.6061 43.56C13.8194 43.56 14.7761 43.21 15.4761 42.51C16.2228 41.7633 16.5961 40.5033 16.5961 38.73V12.27C16.5961 10.4967 16.2228 9.26 15.4761 8.56C14.7761 7.81333 13.8194 7.44 12.6061 7.44C11.3928 7.44 10.4128 7.81333 9.66609 8.56C8.96609 9.26 8.61609 10.4967 8.61609 12.27V38.73ZM0.916094 12.76C0.916094 8.79333 1.91943 5.76 3.92609 3.66C5.93276 1.51333 8.82609 0.44 12.6061 0.44C16.3861 0.44 19.2794 1.51333 21.2861 3.66C23.2928 5.76 24.2961 8.79333 24.2961 12.76V38.24C24.2961 42.2067 23.2928 45.2633 21.2861 47.41C19.2794 49.51 16.3861 50.56 12.6061 50.56C8.82609 50.56 5.93276 49.51 3.92609 47.41C1.91943 45.2633 0.916094 42.2067 0.916094 38.24V12.76ZM52.4 38.24C52.4 42.2067 51.3733 45.2633 49.32 47.41C47.2667 49.51 44.28 50.56 40.36 50.56C36.44 50.56 33.4533 49.51 31.4 47.41C29.3467 45.2633 28.32 42.2067 28.32 38.24V34.39C28.32 32.01 28.6933 29.9567 29.44 28.23C30.1867 26.4567 31.4 25.1033 33.08 24.17C29.9067 22.4433 28.32 19.1533 28.32 14.3V12.76C28.32 8.79333 29.3467 5.76 31.4 3.66C33.4533 1.51333 36.44 0.44 40.36 0.44C44.28 0.44 47.2667 1.51333 49.32 3.66C51.3733 5.76 52.4 8.79333 52.4 12.76V14.3C52.4 19.1067 50.8133 22.3967 47.64 24.17C49.32 25.1033 50.5333 26.4567 51.28 28.23C52.0267 29.9567 52.4 32.01 52.4 34.39V38.24ZM36.02 38.03C36.02 40.2233 36.44 41.6933 37.28 42.44C38.12 43.1867 39.1467 43.56 40.36 43.56C41.5733 43.56 42.5767 43.1867 43.37 42.44C44.21 41.6933 44.6533 40.2233 44.7 38.03V33.48C44.7 31.52 44.3033 30.12 43.51 29.28C42.7633 28.3933 41.7133 27.95 40.36 27.95C39.0067 27.95 37.9333 28.3933 37.14 29.28C36.3933 30.12 36.02 31.52 36.02 33.48V38.03ZM36.02 15.77C36.02 17.73 36.4167 19.0833 37.21 19.83C38.05 20.5767 39.1 20.95 40.36 20.95C41.5733 20.95 42.6 20.5767 43.44 19.83C44.28 19.0833 44.7 17.73 44.7 15.77V13.04C44.7 10.8467 44.28 9.37666 43.44 8.63C42.6 7.83666 41.5733 7.44 40.36 7.44C39.1467 7.44 38.12 7.83666 37.28 8.63C36.44 9.37666 36.02 10.8467 36.02 13.04V15.77Z" fill="url(#paint0_linear_29_99)"/>
<path d="M8.61609 38.73C8.61609 40.5033 8.96609 41.7633 9.66609 42.51C10.4128 43.21 11.3928 43.56 12.6061 43.56C13.8194 43.56 14.7761 43.21 15.4761 42.51C16.2228 41.7633 16.5961 40.5033 16.5961 38.73V12.27C16.5961 10.4967 16.2228 9.26 15.4761 8.56C14.7761 7.81333 13.8194 7.44 12.6061 7.44C11.3928 7.44 10.4128 7.81333 9.66609 8.56C8.96609 9.26 8.61609 10.4967 8.61609 12.27V38.73ZM0.916094 12.76C0.916094 8.79333 1.91943 5.76 3.92609 3.66C5.93276 1.51333 8.82609 0.44 12.6061 0.44C16.3861 0.44 19.2794 1.51333 21.2861 3.66C23.2928 5.76 24.2961 8.79333 24.2961 12.76V38.24C24.2961 42.2067 23.2928 45.2633 21.2861 47.41C19.2794 49.51 16.3861 50.56 12.6061 50.56C8.82609 50.56 5.93276 49.51 3.92609 47.41C1.91943 45.2633 0.916094 42.2067 0.916094 38.24V12.76ZM52.4 38.24C52.4 42.2067 51.3733 45.2633 49.32 47.41C47.2667 49.51 44.28 50.56 40.36 50.56C36.44 50.56 33.4533 49.51 31.4 47.41C29.3467 45.2633 28.32 42.2067 28.32 38.24V34.39C28.32 32.01 28.6933 29.9567 29.44 28.23C30.1867 26.4567 31.4 25.1033 33.08 24.17C29.9067 22.4433 28.32 19.1533 28.32 14.3V12.76C28.32 8.79333 29.3467 5.76 31.4 3.66C33.4533 1.51333 36.44 0.44 40.36 0.44C44.28 0.44 47.2667 1.51333 49.32 3.66C51.3733 5.76 52.4 8.79333 52.4 12.76V14.3C52.4 19.1067 50.8133 22.3967 47.64 24.17C49.32 25.1033 50.5333 26.4567 51.28 28.23C52.0267 29.9567 52.4 32.01 52.4 34.39V38.24ZM36.02 38.03C36.02 40.2233 36.44 41.6933 37.28 42.44C38.12 43.1867 39.1467 43.56 40.36 43.56C41.5733 43.56 42.5767 43.1867 43.37 42.44C44.21 41.6933 44.6533 40.2233 44.7 38.03V33.48C44.7 31.52 44.3033 30.12 43.51 29.28C42.7633 28.3933 41.7133 27.95 40.36 27.95C39.0067 27.95 37.9333 28.3933 37.14 29.28C36.3933 30.12 36.02 31.52 36.02 33.48V38.03ZM36.02 15.77C36.02 17.73 36.4167 19.0833 37.21 19.83C38.05 20.5767 39.1 20.95 40.36 20.95C41.5733 20.95 42.6 20.5767 43.44 19.83C44.28 19.0833 44.7 17.73 44.7 15.77V13.04C44.7 10.8467 44.28 9.37666 43.44 8.63C42.6 7.83666 41.5733 7.44 40.36 7.44C39.1467 7.44 38.12 7.83666 37.28 8.63C36.44 9.37666 36.02 10.8467 36.02 13.04V15.77Z" fill="url(#paint1_radial_29_99)" fill-opacity="0.3"/>
<defs>
<linearGradient id="paint0_linear_29_99" x1="57.3337" y1="10.5075" x2="-4.47963" y2="10.9138" gradientUnits="userSpaceOnUse">
<stop offset="0.0568692" stop-color="#E7BF73"/>
<stop offset="0.459767" stop-color="#FFF2AF"/>
<stop offset="1" stop-color="#D2B988"/>
</linearGradient>
<radialGradient id="paint1_radial_29_99" cx="0" cy="0" r="1" gradientUnits="userSpaceOnUse" gradientTransform="translate(28.4629 11.29) rotate(91.694) scale(63.2376 33.9879)">
<stop stop-color="white"/>
<stop offset="1" stop-color="white" stop-opacity="0"/>
</radialGradient>
</defs>
</svg>
