<svg width="155" height="18" viewBox="0 0 155 18" fill="none" xmlns="http://www.w3.org/2000/svg">
<path d="M36.49 11.195H30.64L29.38 14H28.225L33.025 3.5H34.12L38.92 14H37.75L36.49 11.195ZM36.085 10.295L33.565 4.655L31.045 10.295H36.085ZM45.7021 9.92C46.7721 10.17 47.3071 10.815 47.3071 11.855C47.3071 12.545 47.0521 13.075 46.5421 13.445C46.0321 13.815 45.2721 14 44.2621 14H40.6771V6.11H44.1571C45.0571 6.11 45.7621 6.285 46.2721 6.635C46.7821 6.985 47.0371 7.485 47.0371 8.135C47.0371 8.565 46.9171 8.935 46.6771 9.245C46.4471 9.545 46.1221 9.77 45.7021 9.92ZM41.7121 9.62H44.0821C44.6921 9.62 45.1571 9.505 45.4771 9.275C45.8071 9.045 45.9721 8.71 45.9721 8.27C45.9721 7.83 45.8071 7.5 45.4771 7.28C45.1571 7.06 44.6921 6.95 44.0821 6.95H41.7121V9.62ZM44.2171 13.16C44.8971 13.16 45.4071 13.05 45.7471 12.83C46.0871 12.61 46.2571 12.265 46.2571 11.795C46.2571 11.325 46.1021 10.98 45.7921 10.76C45.4821 10.53 44.9921 10.415 44.3221 10.415H41.7121V13.16H44.2171ZM55.3531 7.055H52.3681V14H51.3031V7.055H48.3181V6.11H55.3531V7.055ZM59.7817 14.075C59.0217 14.075 58.3367 13.905 57.7267 13.565C57.1167 13.215 56.6367 12.735 56.2867 12.125C55.9367 11.515 55.7617 10.825 55.7617 10.055C55.7617 9.285 55.9367 8.595 56.2867 7.985C56.6367 7.375 57.1167 6.9 57.7267 6.56C58.3367 6.22 59.0217 6.05 59.7817 6.05C60.5417 6.05 61.2267 6.22 61.8367 6.56C62.4467 6.9 62.9217 7.375 63.2617 7.985C63.6117 8.595 63.7867 9.285 63.7867 10.055C63.7867 10.825 63.6117 11.515 63.2617 12.125C62.9217 12.735 62.4467 13.215 61.8367 13.565C61.2267 13.905 60.5417 14.075 59.7817 14.075ZM59.7817 13.13C60.3417 13.13 60.8417 13.005 61.2817 12.755C61.7317 12.495 62.0817 12.13 62.3317 11.66C62.5817 11.19 62.7067 10.655 62.7067 10.055C62.7067 9.455 62.5817 8.92 62.3317 8.45C62.0817 7.98 61.7317 7.62 61.2817 7.37C60.8417 7.11 60.3417 6.98 59.7817 6.98C59.2217 6.98 58.7167 7.11 58.2667 7.37C57.8267 7.62 57.4767 7.98 57.2167 8.45C56.9667 8.92 56.8417 9.455 56.8417 10.055C56.8417 10.655 56.9667 11.19 57.2167 11.66C57.4767 12.13 57.8267 12.495 58.2667 12.755C58.7167 13.005 59.2217 13.13 59.7817 13.13ZM70.1279 6.05C70.8679 6.05 71.5379 6.22 72.1379 6.56C72.7379 6.89 73.2079 7.36 73.5479 7.97C73.8879 8.58 74.0579 9.275 74.0579 10.055C74.0579 10.845 73.8879 11.545 73.5479 12.155C73.2079 12.765 72.7379 13.24 72.1379 13.58C71.5479 13.91 70.8779 14.075 70.1279 14.075C69.4879 14.075 68.9079 13.945 68.3879 13.685C67.8779 13.415 67.4579 13.025 67.1279 12.515V16.91H66.0629V6.11H67.0829V7.67C67.4029 7.15 67.8229 6.75 68.3429 6.47C68.8729 6.19 69.4679 6.05 70.1279 6.05ZM70.0529 13.13C70.6029 13.13 71.1029 13.005 71.5529 12.755C72.0029 12.495 72.3529 12.13 72.6029 11.66C72.8629 11.19 72.9929 10.655 72.9929 10.055C72.9929 9.455 72.8629 8.925 72.6029 8.465C72.3529 7.995 72.0029 7.63 71.5529 7.37C71.1029 7.11 70.6029 6.98 70.0529 6.98C69.4929 6.98 68.9879 7.11 68.5379 7.37C68.0979 7.63 67.7479 7.995 67.4879 8.465C67.2379 8.925 67.1129 9.455 67.1129 10.055C67.1129 10.655 67.2379 11.19 67.4879 11.66C67.7479 12.13 68.0979 12.495 68.5379 12.755C68.9879 13.005 69.4929 13.13 70.0529 13.13ZM83.5268 14.075C82.7668 14.075 82.0818 13.905 81.4718 13.565C80.8618 13.215 80.3818 12.735 80.0318 12.125C79.6818 11.515 79.5068 10.825 79.5068 10.055C79.5068 9.285 79.6818 8.595 80.0318 7.985C80.3818 7.375 80.8618 6.9 81.4718 6.56C82.0818 6.22 82.7668 6.05 83.5268 6.05C84.2868 6.05 84.9718 6.22 85.5818 6.56C86.1918 6.9 86.6668 7.375 87.0068 7.985C87.3568 8.595 87.5318 9.285 87.5318 10.055C87.5318 10.825 87.3568 11.515 87.0068 12.125C86.6668 12.735 86.1918 13.215 85.5818 13.565C84.9718 13.905 84.2868 14.075 83.5268 14.075ZM83.5268 13.13C84.0868 13.13 84.5868 13.005 85.0268 12.755C85.4768 12.495 85.8268 12.13 86.0768 11.66C86.3268 11.19 86.4518 10.655 86.4518 10.055C86.4518 9.455 86.3268 8.92 86.0768 8.45C85.8268 7.98 85.4768 7.62 85.0268 7.37C84.5868 7.11 84.0868 6.98 83.5268 6.98C82.9668 6.98 82.4618 7.11 82.0118 7.37C81.5718 7.62 81.2218 7.98 80.9618 8.45C80.7118 8.92 80.5868 9.455 80.5868 10.055C80.5868 10.655 80.7118 11.19 80.9618 11.66C81.2218 12.13 81.5718 12.495 82.0118 12.755C82.4618 13.005 82.9668 13.13 83.5268 13.13ZM93.633 6.305C94.363 6.305 95.013 6.47 95.583 6.8C96.163 7.12 96.613 7.575 96.933 8.165C97.253 8.745 97.413 9.41 97.413 10.16C97.413 10.93 97.243 11.615 96.903 12.215C96.573 12.805 96.108 13.265 95.508 13.595C94.908 13.925 94.218 14.09 93.438 14.09C92.128 14.09 91.113 13.63 90.393 12.71C89.673 11.79 89.313 10.52 89.313 8.9C89.313 7.21 89.633 5.915 90.273 5.015C90.923 4.115 91.933 3.505 93.303 3.185L96.843 2.375L97.023 3.35L93.693 4.115C92.563 4.365 91.733 4.81 91.203 5.45C90.673 6.08 90.383 7.015 90.333 8.255C90.653 7.645 91.098 7.17 91.668 6.83C92.238 6.48 92.893 6.305 93.633 6.305ZM93.468 13.205C94.018 13.205 94.508 13.08 94.938 12.83C95.378 12.57 95.718 12.21 95.958 11.75C96.208 11.29 96.333 10.77 96.333 10.19C96.333 9.61 96.213 9.1 95.973 8.66C95.733 8.22 95.393 7.88 94.953 7.64C94.523 7.39 94.028 7.265 93.468 7.265C92.908 7.265 92.408 7.39 91.968 7.64C91.538 7.88 91.198 8.22 90.948 8.66C90.708 9.1 90.588 9.61 90.588 10.19C90.588 10.77 90.708 11.29 90.948 11.75C91.198 12.21 91.543 12.57 91.983 12.83C92.423 13.08 92.918 13.205 93.468 13.205ZM106.181 6.11L102.236 14.945C101.916 15.685 101.546 16.21 101.126 16.52C100.706 16.83 100.201 16.985 99.6109 16.985C99.2309 16.985 98.8759 16.925 98.5459 16.805C98.2159 16.685 97.9309 16.505 97.6909 16.265L98.1859 15.47C98.5859 15.87 99.0659 16.07 99.6259 16.07C99.9859 16.07 100.291 15.97 100.541 15.77C100.801 15.57 101.041 15.23 101.261 14.75L101.606 13.985L98.0809 6.11H99.1909L102.161 12.815L105.131 6.11H106.181ZM113.795 6.11V14H112.73V10.715C111.82 11.115 110.925 11.315 110.045 11.315C109.095 11.315 108.355 11.1 107.825 10.67C107.295 10.23 107.03 9.575 107.03 8.705V6.11H108.095V8.645C108.095 9.235 108.285 9.685 108.665 9.995C109.045 10.295 109.57 10.445 110.24 10.445C110.98 10.445 111.81 10.25 112.73 9.86V6.11H113.795ZM123.72 10.385H117.12C117.18 11.205 117.495 11.87 118.065 12.38C118.635 12.88 119.355 13.13 120.225 13.13C120.715 13.13 121.165 13.045 121.575 12.875C121.985 12.695 122.34 12.435 122.64 12.095L123.24 12.785C122.89 13.205 122.45 13.525 121.92 13.745C121.4 13.965 120.825 14.075 120.195 14.075C119.385 14.075 118.665 13.905 118.035 13.565C117.415 13.215 116.93 12.735 116.58 12.125C116.23 11.515 116.055 10.825 116.055 10.055C116.055 9.285 116.22 8.595 116.55 7.985C116.89 7.375 117.35 6.9 117.93 6.56C118.52 6.22 119.18 6.05 119.91 6.05C120.64 6.05 121.295 6.22 121.875 6.56C122.455 6.9 122.91 7.375 123.24 7.985C123.57 8.585 123.735 9.275 123.735 10.055L123.72 10.385ZM119.91 6.965C119.15 6.965 118.51 7.21 117.99 7.7C117.48 8.18 117.19 8.81 117.12 9.59H122.715C122.645 8.81 122.35 8.18 121.83 7.7C121.32 7.21 120.68 6.965 119.91 6.965ZM126.092 6.11H127.157V9.605H132.122V6.11H133.187V14H132.122V10.52H127.157V14H126.092V6.11ZM136.214 6.11H137.279V12.38L142.544 6.11H143.489V14H142.424V7.73L137.174 14H136.214V6.11ZM152.601 6.11V14H151.626V11.39H149.151H148.851L147.021 14H145.866L147.831 11.24C147.221 11.07 146.751 10.78 146.421 10.37C146.091 9.96 145.926 9.44 145.926 8.81C145.926 7.93 146.226 7.26 146.826 6.8C147.426 6.34 148.246 6.11 149.286 6.11H152.601ZM147.006 8.84C147.006 10.01 147.751 10.595 149.241 10.595H151.626V7.055H149.316C147.776 7.055 147.006 7.65 147.006 8.84Z" fill="#848484"/>
<g clip-path="url(#clip0_14_614)">
<path fill-rule="evenodd" clip-rule="evenodd" d="M18 9C18 11.4131 17.0502 13.6044 15.5043 15.2205C13.8714 16.9273 11.5736 17.9925 9.02686 18C9.01791 18 9.00896 18 9 18C8.99104 18 8.98209 18 8.97314 18C6.42639 17.9925 4.12851 16.9273 2.49574 15.2205C0.949704 13.6044 0 11.4131 0 9C0 4.02944 4.02944 0 9 0C13.9706 0 18 4.02944 18 9ZM14.455 13.5C13.1581 11.9295 11.1959 10.9285 9 10.9285C6.80408 10.9285 4.84192 11.9295 3.54491 13.5C4.84192 15.0705 6.80408 16.0714 9 16.0714C11.1959 16.0714 13.1581 15.0705 14.455 13.5ZM9.00015 9.64282C10.7754 9.64282 12.2144 8.20373 12.2144 6.42853C12.2144 4.65333 10.7754 3.21425 9.00015 3.21425C7.22496 3.21425 5.78587 4.65333 5.78587 6.42853C5.78587 8.20373 7.22496 9.64282 9.00015 9.64282Z" fill="#848484"/>
</g>
<defs>
<clipPath id="clip0_14_614">
<rect width="18" height="18" fill="white"/>
</clipPath>
</defs>
</svg>
