<svg width="233" height="42" viewBox="0 0 233 42" fill="none" xmlns="http://www.w3.org/2000/svg">
<path d="M8.75009 0.599998C14.4701 0.599998 17.2781 3.772 17.2781 9.596V14.328C17.2781 20.152 14.4701 23.324 8.75009 23.324H6.04609V37H0.326094V0.599998H8.75009ZM8.75009 5.8H6.04609V18.124H8.75009C10.5701 18.124 11.5581 17.292 11.5581 14.692V9.232C11.5581 6.632 10.5701 5.8 8.75009 5.8ZM25.1797 8.972V28.628C25.1797 31.228 26.3237 32.216 28.1437 32.216C29.9637 32.216 31.1077 31.228 31.1077 28.628V8.972C31.1077 6.372 29.9637 5.384 28.1437 5.384C26.3237 5.384 25.1797 6.372 25.1797 8.972ZM19.4597 28.264V9.336C19.4597 3.512 22.5277 0.184 28.1437 0.184C33.7597 0.184 36.8277 3.512 36.8277 9.336V28.264C36.8277 34.088 33.7597 37.416 28.1437 37.416C22.5277 37.416 19.4597 34.088 19.4597 28.264ZM48.4488 0.599998L52.6608 26.444L56.5608 0.599998H64.5168V37H59.1088V10.896L55.1568 37H49.7488L45.4848 11.26V37H40.4928V0.599998H48.4488ZM81.3657 0.599998L87.1897 37H81.4177L80.4297 30.396H73.4097L72.4217 37H67.1697L72.9937 0.599998H81.3657ZM76.8937 7.048L74.1377 25.456H79.6497L76.8937 7.048ZM95.5734 21.4V37H89.8534V0.599998H95.5734V16.2H102.073V0.599998H107.897V37H102.073V21.4H95.5734ZM142.323 41.888H136.655V37H124.435V41.888H118.871V31.904H121.107C122.095 30.656 122.407 29.304 122.511 27.172L123.811 0.599998H139.827V31.904H142.323V41.888ZM129.167 5.8L128.127 27.068C127.971 29.824 127.451 31.02 126.515 31.904H134.003V5.8H129.167ZM164.334 0.599998L158.198 27.744C156.846 34.296 154.61 37.572 146.654 37.052V31.956C149.566 32.164 151.23 31.644 151.698 28.992L151.75 28.68L143.846 0.599998H149.514L152.634 13.028L154.402 21.556L155.754 13.08L158.354 0.599998H164.334ZM188.94 41.888H183.272V37H171.052V41.888H165.488V31.904H167.724C168.712 30.656 169.024 29.304 169.128 27.172L170.428 0.599998H186.444V31.904H188.94V41.888ZM175.784 5.8L174.744 27.068C174.588 29.824 174.068 31.02 173.132 31.904H180.62V5.8H175.784ZM205.179 37L199.615 22.492L197.847 25.82V37H192.127V0.599998H197.847V16.46L205.335 0.599998H211.055L203.099 16.824L211.055 37H205.179ZM226.346 0.599998L232.17 37H226.398L225.41 30.396H218.39L217.402 37H212.15L217.974 0.599998H226.346ZM221.874 7.048L219.118 25.456H224.63L221.874 7.048Z" fill="#F2DFB0"/>
<path d="M8.75009 0.599998C14.4701 0.599998 17.2781 3.772 17.2781 9.596V14.328C17.2781 20.152 14.4701 23.324 8.75009 23.324H6.04609V37H0.326094V0.599998H8.75009ZM8.75009 5.8H6.04609V18.124H8.75009C10.5701 18.124 11.5581 17.292 11.5581 14.692V9.232C11.5581 6.632 10.5701 5.8 8.75009 5.8ZM25.1797 8.972V28.628C25.1797 31.228 26.3237 32.216 28.1437 32.216C29.9637 32.216 31.1077 31.228 31.1077 28.628V8.972C31.1077 6.372 29.9637 5.384 28.1437 5.384C26.3237 5.384 25.1797 6.372 25.1797 8.972ZM19.4597 28.264V9.336C19.4597 3.512 22.5277 0.184 28.1437 0.184C33.7597 0.184 36.8277 3.512 36.8277 9.336V28.264C36.8277 34.088 33.7597 37.416 28.1437 37.416C22.5277 37.416 19.4597 34.088 19.4597 28.264ZM48.4488 0.599998L52.6608 26.444L56.5608 0.599998H64.5168V37H59.1088V10.896L55.1568 37H49.7488L45.4848 11.26V37H40.4928V0.599998H48.4488ZM81.3657 0.599998L87.1897 37H81.4177L80.4297 30.396H73.4097L72.4217 37H67.1697L72.9937 0.599998H81.3657ZM76.8937 7.048L74.1377 25.456H79.6497L76.8937 7.048ZM95.5734 21.4V37H89.8534V0.599998H95.5734V16.2H102.073V0.599998H107.897V37H102.073V21.4H95.5734ZM142.323 41.888H136.655V37H124.435V41.888H118.871V31.904H121.107C122.095 30.656 122.407 29.304 122.511 27.172L123.811 0.599998H139.827V31.904H142.323V41.888ZM129.167 5.8L128.127 27.068C127.971 29.824 127.451 31.02 126.515 31.904H134.003V5.8H129.167ZM164.334 0.599998L158.198 27.744C156.846 34.296 154.61 37.572 146.654 37.052V31.956C149.566 32.164 151.23 31.644 151.698 28.992L151.75 28.68L143.846 0.599998H149.514L152.634 13.028L154.402 21.556L155.754 13.08L158.354 0.599998H164.334ZM188.94 41.888H183.272V37H171.052V41.888H165.488V31.904H167.724C168.712 30.656 169.024 29.304 169.128 27.172L170.428 0.599998H186.444V31.904H188.94V41.888ZM175.784 5.8L174.744 27.068C174.588 29.824 174.068 31.02 173.132 31.904H180.62V5.8H175.784ZM205.179 37L199.615 22.492L197.847 25.82V37H192.127V0.599998H197.847V16.46L205.335 0.599998H211.055L203.099 16.824L211.055 37H205.179ZM226.346 0.599998L232.17 37H226.398L225.41 30.396H218.39L217.402 37H212.15L217.974 0.599998H226.346ZM221.874 7.048L219.118 25.456H224.63L221.874 7.048Z" fill="url(#paint0_radial_14_587)" fill-opacity="0.4"/>
<defs>
<radialGradient id="paint0_radial_14_587" cx="0" cy="0" r="1" gradientUnits="userSpaceOnUse" gradientTransform="translate(121.095 11.1409) rotate(29.3038) scale(74.5893 85.6821)">
<stop stop-color="white"/>
<stop offset="1" stop-color="white" stop-opacity="0"/>
</radialGradient>
</defs>
</svg>
