<svg width="152" height="86" viewBox="0 0 152 86" fill="none" xmlns="http://www.w3.org/2000/svg">
<path d="M0.5 10C0.5 4.75329 4.75329 0.5 10 0.5H142C147.247 0.5 151.5 4.75329 151.5 10V76C151.5 81.2467 147.247 85.5 142 85.5H10C4.75329 85.5 0.5 81.2467 0.5 76V10Z" fill="black"/>
<path d="M0.5 10C0.5 4.75329 4.75329 0.5 10 0.5H142C147.247 0.5 151.5 4.75329 151.5 10V76C151.5 81.2467 147.247 85.5 142 85.5H10C4.75329 85.5 0.5 81.2467 0.5 76V10Z" fill="url(#paint0_radial_1_14)" fill-opacity="0.15"/>
<path d="M0.5 10C0.5 4.75329 4.75329 0.5 10 0.5H142C147.247 0.5 151.5 4.75329 151.5 10V76C151.5 81.2467 147.247 85.5 142 85.5H10C4.75329 85.5 0.5 81.2467 0.5 76V10Z" stroke="#4D4D4D"/>
<path d="M0.5 10C0.5 4.75329 4.75329 0.5 10 0.5H142C147.247 0.5 151.5 4.75329 151.5 10V76C151.5 81.2467 147.247 85.5 142 85.5H10C4.75329 85.5 0.5 81.2467 0.5 76V10Z" stroke="url(#paint1_radial_1_14)"/>
<defs>
<radialGradient id="paint0_radial_1_14" cx="0" cy="0" r="1" gradientUnits="userSpaceOnUse" gradientTransform="translate(123.771 19.6571) rotate(136.557) scale(137.573 153.095)">
<stop stop-color="white"/>
<stop offset="1" stop-color="white" stop-opacity="0"/>
</radialGradient>
<radialGradient id="paint1_radial_1_14" cx="0" cy="0" r="1" gradientUnits="userSpaceOnUse" gradientTransform="translate(79.2607 6.51061e-06) rotate(90.7213) scale(59.7747 53.481)">
<stop stop-color="white"/>
<stop offset="1" stop-color="white" stop-opacity="0"/>
</radialGradient>
</defs>
</svg>
