<svg width="70" height="70" viewBox="0 0 70 70" fill="none" xmlns="http://www.w3.org/2000/svg">
<path d="M48.3583 22.1084L52.4708 26.2501L29.1375 49.5834L17.4708 37.9459L21.6125 33.8334L29.1375 41.3292L48.3583 22.1084Z" fill="#56C313"/>
<path fill-rule="evenodd" clip-rule="evenodd" d="M64.1667 35.0002C64.1667 51.1083 51.1082 64.1668 35 64.1668C18.8917 64.1668 5.83337 51.1083 5.83337 35.0002C5.83337 18.8918 18.8917 5.8335 35 5.8335C51.1082 5.8335 64.1667 18.8918 64.1667 35.0002ZM58.3334 35.0002C58.3334 47.8869 47.8867 58.3335 35 58.3335C22.1134 58.3335 11.6667 47.8869 11.6667 35.0002C11.6667 22.1135 22.1134 11.6668 35 11.6668C47.8867 11.6668 58.3334 22.1135 58.3334 35.0002Z" fill="#56C313"/>
</svg>
